<svg xmlns="http://www.w3.org/2000/svg" xmlns:xlink="http://www.w3.org/1999/xlink"><defs><path id="a" d="M46.557 37.182l-9-6.014c-1.498-1.002-2.941-.967-4.189.059-3.504 2.873-5.582 2.049-5.92 1.879-1.982-.992-3.854-1.928-6.741-4.813-3.584-3.586-4.878-5.875-5.812-7.74-.373-.746-.803-3.254 1.65-5.869 1.147-1.221 1.253-2.721.299-4.221-.735-1.156-.735-1.156-1.313-2.006-.57-.84-1.709-2.518-4.713-7.014C10.169.473 9.247 0 8 0 6.586 0 5.87.717 5.293 1.293l-3 3C.169 6.416 0 7.633 0 9c0 1.721 2.485 12.939 14.292 24.705C26.061 45.514 37.268 48 38.988 48h.066c1.355-.02 2.559-.199 4.652-2.293l3-3C47.283 42.131 48 41.414 48 40c0-1.248-.473-2.17-1.443-2.818zm-1.264 4.111l-3 3c-1.684 1.684-2.416 1.695-3.305 1.707-.123-.004-10.891-1.273-23.282-13.709C3.415 20.043 2.002 9.096 2 9c0-.887 0-1.586 1.706-3.293l3-3C7.233 2.182 7.443 2 8 2c.653 0 .927.213 1.156.555a976.365 976.365 0 004.721 7.025c.563.828.563.828 1.28 1.957.568.893.302 1.383-.07 1.779-3.121 3.324-2.66 6.771-1.981 8.131 1.003 2.006 2.39 4.463 6.187 8.26 3.115 3.115 5.223 4.168 7.26 5.188.561.279 1.293.434 2.063.434 1.326 0 3.445-.443 6.02-2.555.365-.301.625-.336.789-.336.287 0 .631.133 1.021.395l9 6.012c.341.227.554.501.554 1.155 0 .557-.182.768-.707 1.293z"/></defs><symbol id="17041734501530272912" viewBox="0 0 48 48"><use xlink:href="#a"/></symbol><symbol id="dfgdfgd"><path d="M4.51 0h-.02A4.075 4.075 0 00.42 4.07c0 1.471.67 3.413 1.99 5.77a32.074 32.074 0 001.983 3.101.147.147 0 00.118.059h.004a.147.147 0 00.118-.065c.01-.015.996-1.505 1.969-3.326C7.915 7.15 8.58 5.286 8.58 4.07A4.076 4.076 0 004.509 0zm1.879 4.17A1.89 1.89 0 014.5 6.058 1.89 1.89 0 012.611 4.17 1.89 1.89 0 014.5 2.28a1.89 1.89 0 011.889 1.89z"/></symbol><symbol id="Group"><rect width="20" height="2" rx="1"/><rect y="6" width="20" height="2" rx="1"/><rect x="10" y="12" width="10" height="2" rx="1"/></symbol><symbol id="Vector_55"><path d="M11.299 5.67L8.53 2.528c-.257-.292-.714-.31-1.02-.04L5.323 4.416c-2.77 2.44.85 7.663 3.633 10.823 2.767 3.14 7.533 7.433 10.302 4.993l2.188-1.928c.306-.27.346-.724.089-1.016l-2.768-3.142c-.258-.292-.714-.31-1.02-.04l-2.188 1.928s-.99-.065-3.822-3.222C8.906 9.654 9.022 8.614 9.022 8.614l2.188-1.928c.306-.27.346-.724.089-1.016z" stroke-width="1.5" stroke-linecap="round" stroke-linejoin="round"/></symbol></svg>