<svg xmlns="http://www.w3.org/2000/svg" xmlns:xlink="http://www.w3.org/1999/xlink"><defs><linearGradient id="paint0_linear" x1="7.997" y1="7.983" x2="9.707" y2="13.513" gradientUnits="userSpaceOnUse"><stop stop-color="#EFF7FC"/><stop offset="1" stop-color="#fff"/></linearGradient></defs><symbol id="tg"><path d="M7.339 10.255l6.448 4.763c.735.406 1.266.196 1.45-.683L17.86 1.967C18.13.89 17.45.401 16.746.721L1.335 6.663c-1.052.422-1.046 1.01-.192 1.27l3.955 1.235 9.157-5.776c.432-.263.829-.122.503.167"/></symbol><symbol id="viber"><path d="M12.55 7.314c-.067-.534-.23-.953-.522-1.324-.379-.479-.862-.765-1.578-.935-.467-.113-.655-.1-.824.054-.157.145-.188.434-.068.622.085.136.182.184.453.238.361.066.61.152.838.282.481.278.706.713.73 1.418.01.33.04.432.155.55a.497.497 0 00.757-.084c.06-.097.068-.14.074-.364a3.578 3.578 0 00-.016-.457z"/><path d="M14.435 7.916c-.095-1.636-.734-2.952-1.88-3.878a5.298 5.298 0 00-2.28-1.052c-.312-.062-.889-.113-.988-.084a.607.607 0 00-.284.22c-.062.099-.076.32-.023.448.086.214.245.29.691.328.688.06 1.398.302 1.934.66a4.056 4.056 0 011.414 1.62c.272.563.44 1.373.435 2.1-.002.262.039.41.144.519.16.167.392.203.597.092.227-.12.28-.329.24-.973zm1.955 6.389a1.783 1.783 0 00-.157-.317c-.331-.502-2.108-1.9-2.996-2.358-.506-.262-.882-.35-1.16-.267-.3.084-.457.224-.958.851-.202.251-.41.486-.465.524a1.219 1.219 0 01-.593.171c-.438-.002-1.234-.288-1.846-.663-.475-.291-1.084-.812-1.551-1.328-.551-.605-.927-1.139-1.223-1.742-.384-.774-.48-1.248-.32-1.594a1.24 1.24 0 01.115-.209c.024-.026.27-.23.543-.452.536-.428.622-.526.722-.82.126-.372.092-.753-.102-1.136-.15-.291-.54-.926-.824-1.336-.376-.539-1.31-1.692-1.497-1.848-.336-.275-.766-.322-1.242-.137-.5.196-1.44.957-1.842 1.488-.363.482-.502.823-.523 1.272-.018.37.013.524.208.997 1.52 3.712 3.788 6.675 6.904 9.029 1.627 1.229 3.315 2.165 5.066 2.805 1.022.372 1.465.39 1.988.084.22-.132.766-.695 1.07-1.105.505-.682.691-.997.744-1.248.036-.172.008-.47-.06-.66z"/><path d="M16.356 8.291a7.447 7.447 0 00-.515-2.53c-.32-.832-.645-1.375-1.258-2.11-.58-.689-1.03-1.082-1.744-1.52-.996-.61-2.208-1.014-3.566-1.183-.464-.06-.568-.055-.71.04-.276.18-.272.627.004.804.091.056.173.077.543.125.569.077.935.15 1.369.268 1.702.465 3.01 1.416 3.886 2.828.732 1.176 1.036 2.353.993 3.856-.015.508-.005.598.073.72.149.227.541.272.742.083.126-.115.15-.201.174-.636.012-.227.014-.562.009-.745z"/></symbol><symbol id="wa"><path fill-rule="evenodd" clip-rule="evenodd" d="M10.527 19.902h-.003a9.5 9.5 0 01-4.547-1.158L.933 20.067l1.35-4.93a9.497 9.497 0 01-1.27-4.757C1.015 5.134 5.283.867 10.527.867a9.453 9.453 0 016.73 2.79 9.457 9.457 0 012.784 6.73c-.002 5.245-4.268 9.513-9.514 9.515zm-4.316-2.88l.288.17a7.896 7.896 0 004.025 1.103h.003c4.359 0 7.906-3.548 7.908-7.908 0-2.113-.82-4.1-2.314-5.594a7.854 7.854 0 00-5.59-2.32c-4.362 0-7.91 3.548-7.912 7.908a7.89 7.89 0 001.21 4.208l.188.3-.8 2.917 2.994-.785zm8.784-4.586c.166.08.278.134.325.214.06.1.06.575-.138 1.13-.198.556-1.148 1.063-1.605 1.13-.41.062-.928.088-1.497-.093a13.78 13.78 0 01-1.355-.501c-2.229-.962-3.735-3.122-4.02-3.53a2.91 2.91 0 00-.041-.06l-.002-.002c-.126-.168-.969-1.293-.969-2.457 0-1.095.538-1.669.786-1.933l.046-.05a.873.873 0 01.634-.297c.158 0 .317.001.456.008h.053c.138 0 .311-.001.481.408l.263.637c.205.498.43 1.049.47 1.128.06.12.1.258.02.417a8.992 8.992 0 00-.033.067c-.06.122-.103.211-.204.33-.04.046-.081.096-.122.146-.082.1-.164.199-.235.27-.12.118-.243.247-.104.485.138.238.615 1.016 1.322 1.647.76.677 1.42.964 1.755 1.109.065.028.118.051.157.07.238.12.376.1.515-.059s.594-.694.753-.932c.158-.238.317-.198.535-.119.218.08 1.386.655 1.624.773.046.024.09.045.13.064z"/></symbol></svg>