<svg width="9" height="13" viewBox="0 0 9 13" fill="none" xmlns="http://www.w3.org/2000/svg">
<path d="M4.50926 0H4.49071C2.24563 0 0.419189 1.82583 0.419189 4.07006C0.419189 5.54114 1.08914 7.48261 2.41044 9.84063C3.39004 11.5888 4.38337 12.9277 4.39332 12.941C4.42097 12.9781 4.46455 13 4.51073 13C4.51204 13 4.51339 13 4.5147 13C4.56234 12.9987 4.60632 12.9743 4.63274 12.9346C4.64254 12.9197 5.6288 11.4304 6.60174 9.60872C7.91498 7.15001 8.58085 5.28648 8.58085 4.07006C8.58076 1.8258 6.75428 0 4.50926 0ZM6.38863 4.16952C6.38863 5.21095 5.54139 6.05816 4.49996 6.05816C3.45855 6.05816 2.61131 5.21092 2.61131 4.16952C2.61131 3.12811 3.45855 2.28087 4.49996 2.28087C5.54139 2.28087 6.38863 3.12811 6.38863 4.16952Z" fill="#6962B4"/>
</svg>
