<svg width="24" height="25" viewBox="0 0 24 25" fill="none" xmlns="http://www.w3.org/2000/svg">
<path d="M11.2988 5.6701L8.53051 2.5281C8.27354 2.23644 7.81723 2.21851 7.51131 2.48804L5.32348 4.41563C2.55391 6.85574 6.17217 12.0792 8.95569 15.2386C11.7225 18.379 16.4887 22.6719 19.2582 20.2318L21.4461 18.3042C21.752 18.0346 21.7917 17.5797 21.5347 17.2881L18.7665 14.1461C18.5095 13.8544 18.0532 13.8365 17.7473 14.106L15.5595 16.0336C15.5595 16.0336 14.5681 15.969 11.737 12.8117C8.90579 9.65445 9.02229 8.61378 9.02229 8.61378L11.2101 6.68621C11.516 6.41668 11.5557 5.96175 11.2988 5.6701Z" stroke="#4D545B" stroke-width="1.5" stroke-linecap="round" stroke-linejoin="round"/>
</svg>
