<svg width="17" height="18" viewBox="0 0 17 18" fill="none" xmlns="http://www.w3.org/2000/svg">
<path d="M12.5492 7.31404C12.4835 6.78013 12.3194 6.36091 12.0279 5.98958C11.6495 5.51143 11.1659 5.22511 10.45 5.05526C9.98336 4.94205 9.79484 4.95505 9.62609 5.10919C9.4689 5.25361 9.43821 5.54314 9.55833 5.73062C9.64281 5.8667 9.74026 5.91545 10.0113 5.96865C10.3723 6.03506 10.6217 6.12125 10.8486 6.25099C11.3302 6.52908 11.5545 6.96425 11.5785 7.66877C11.5898 7.99956 11.6183 8.10126 11.7339 8.21858C11.948 8.43305 12.3291 8.39133 12.4908 8.13469C12.5501 8.03796 12.5591 7.99586 12.5654 7.77124C12.5695 7.63218 12.5636 7.42519 12.5492 7.31404Z" fill="white"/>
<path d="M14.4355 7.91584C14.3404 6.2801 13.7006 4.96407 12.5556 4.03813C11.9105 3.51785 11.1306 3.16009 10.2759 2.9861C9.96273 2.92387 9.38623 2.87344 9.28733 2.90229C9.194 2.929 9.062 3.03006 9.00316 3.12144C8.94094 3.22055 8.92692 3.44181 8.97999 3.5698C9.06566 3.78376 9.22503 3.85935 9.67134 3.89839C10.3594 3.95859 11.0691 4.20033 11.6053 4.5582C12.2175 4.96566 12.7041 5.52298 13.0189 6.17788C13.2909 6.74058 13.4582 7.55148 13.4536 8.27764C13.452 8.54027 13.4926 8.68859 13.5982 8.79702C13.7576 8.96376 13.99 9.00021 14.1951 8.88947C14.4224 8.76994 14.4756 8.56011 14.4355 7.91584Z" fill="white"/>
<path d="M16.3902 14.3053C16.3587 14.2127 16.2852 14.07 16.2327 13.988C15.9019 13.4857 14.1247 12.0871 13.2374 11.6297C12.7308 11.368 12.3554 11.2807 12.0771 11.3627C11.7778 11.4473 11.6203 11.5874 11.1189 12.214C10.9168 12.4652 10.7094 12.7005 10.6542 12.7375C10.5177 12.8326 10.25 12.9093 10.061 12.9093C9.62255 12.9067 8.82712 12.6211 8.21545 12.2457C7.7403 11.9549 7.13129 11.4341 6.66398 10.9185C6.11267 10.3131 5.73732 9.77903 5.44064 9.17624C5.05739 8.4016 4.96026 7.92834 5.12037 7.58198C5.15975 7.49475 5.21227 7.40224 5.23586 7.37311C5.25951 7.34672 5.50629 7.14312 5.77927 6.92103C6.31484 6.49275 6.40145 6.39493 6.50121 6.10146C6.62721 5.72865 6.59311 5.34795 6.39884 4.96461C6.24919 4.67377 5.85805 4.03926 5.57454 3.62948C5.19914 3.09016 4.26457 1.93744 4.07816 1.78141C3.74214 1.50648 3.31165 1.45886 2.83645 1.64397C2.33509 1.83962 1.39525 2.60103 0.993587 3.13245C0.631313 3.61362 0.492223 3.95466 0.4712 4.40411C0.452837 4.77423 0.484328 4.92758 0.678595 5.40084C2.19857 9.11277 4.46669 12.0765 7.5828 14.4295C9.21039 15.6589 10.8984 16.5948 12.6494 17.2347C13.6705 17.6074 14.1142 17.6259 14.6366 17.3193C14.8571 17.187 15.4032 16.6239 15.7077 16.2141C16.2117 15.532 16.3981 15.2174 16.4506 14.9662C16.4874 14.7944 16.4585 14.4956 16.3902 14.3053Z" fill="white"/>
<path d="M16.3558 8.29144C16.3217 7.36617 16.1659 6.60723 15.841 5.76107C15.5203 4.92872 15.1957 4.38558 14.5828 3.65096C14.0032 2.96216 13.5531 2.56887 12.8392 2.13109C11.8431 1.52113 10.631 1.11748 9.27257 0.947725C8.80931 0.888396 8.70451 0.892634 8.56238 0.987467C8.28696 1.16711 8.29064 1.6152 8.56692 1.79215C8.65838 1.84844 8.73954 1.86895 9.1101 1.91745C9.67895 1.99404 10.0447 2.06621 10.4788 2.18463C12.1807 2.64989 13.4896 3.60089 14.3646 5.01261C15.0968 6.18929 15.4008 7.36606 15.3576 8.86899C15.3426 9.37708 15.3535 9.4665 15.4312 9.58857C15.58 9.81611 15.9722 9.86111 16.1734 9.6723C16.2986 9.55724 16.3222 9.47085 16.3469 9.03598C16.3587 8.80912 16.3612 8.47424 16.3558 8.29144Z" fill="white"/>
</svg>
