<svg width="21" height="21" viewBox="0 0 21 21" fill="none" xmlns="http://www.w3.org/2000/svg">
<path fill-rule="evenodd" clip-rule="evenodd" d="M10.5274 19.9017H10.5235C8.93115 19.9012 7.36655 19.5017 5.97691 18.7437L0.93335 20.0667L2.28309 15.1366C1.4505 13.6937 1.0124 12.057 1.01312 10.3802C1.0152 5.1345 5.28323 0.866699 10.5273 0.866699C13.0724 0.867798 15.4612 1.85861 17.2575 3.65697C19.0537 5.45525 20.0424 7.84559 20.0414 10.3877C20.0393 15.6322 15.773 19.8996 10.5274 19.9017ZM6.2106 17.0213L6.49936 17.1927C7.71348 17.9132 9.10522 18.2944 10.5242 18.295H10.5274C14.8859 18.295 18.4333 14.7475 18.435 10.3872C18.4359 8.27421 17.6141 6.28746 16.1211 4.79273C14.6281 3.298 12.6427 2.47442 10.5305 2.47369C6.16864 2.47369 2.6212 6.02081 2.61947 10.3808C2.61886 11.875 3.03693 13.3301 3.82851 14.5892L4.01653 14.8884L3.21768 17.8064L6.2106 17.0213ZM14.995 12.4361C15.1608 12.5162 15.2727 12.5703 15.3205 12.6501C15.3799 12.7493 15.3799 13.2252 15.1819 13.7806C14.9838 14.3359 14.0341 14.8427 13.5773 14.9109C13.1677 14.9722 12.6494 14.9977 12.08 14.8167C11.7347 14.7072 11.2919 14.5609 10.7248 14.316C8.49613 13.3537 6.99004 11.1936 6.70539 10.7854C6.68545 10.7568 6.6715 10.7368 6.66372 10.7264L6.6618 10.7239C6.536 10.556 5.69303 9.43128 5.69303 8.26724C5.69303 7.17222 6.23092 6.59826 6.47851 6.33406C6.49547 6.31596 6.51108 6.29932 6.52505 6.28406C6.74295 6.04606 7.00051 5.98656 7.15898 5.98656C7.31744 5.98656 7.47609 5.98802 7.6146 5.99498C7.63169 5.99584 7.64947 5.99573 7.66785 5.99562C7.80638 5.99481 7.97909 5.9938 8.14947 6.40306C8.21501 6.56055 8.31092 6.79404 8.41207 7.0403C8.61664 7.53832 8.84265 8.08857 8.88242 8.16819C8.94186 8.28719 8.98147 8.42596 8.90224 8.58469C8.89034 8.60849 8.87934 8.63095 8.86883 8.65241C8.80931 8.77391 8.76553 8.86329 8.66452 8.98124C8.6248 9.02761 8.58375 9.07761 8.5427 9.1276C8.46091 9.2272 8.37913 9.32679 8.30792 9.39774C8.18891 9.51628 8.06502 9.64489 8.2037 9.88289C8.34237 10.1209 8.81947 10.8993 9.52618 11.5297C10.2859 12.2073 10.9461 12.4937 11.2808 12.6389C11.3462 12.6672 11.3991 12.6902 11.4379 12.7096C11.6756 12.8287 11.8142 12.8087 11.9529 12.6501C12.0916 12.4915 12.5472 11.956 12.7056 11.718C12.8641 11.4801 13.0226 11.5197 13.2405 11.599C13.4585 11.6784 14.6272 12.2535 14.8649 12.3724C14.9114 12.3957 14.9547 12.4167 14.995 12.4361Z" fill="#FDFDFD"/>
</svg>
