<svg width="30" height="30" fill="none" xmlns="http://www.w3.org/2000/svg"><path d="M28.242 1.172a1.76 1.76 0 00-1.657 1.172h-4.32a2.343 2.343 0 10-4.688 0h-2.343a2.343 2.343 0 10-4.688 0H8.204a2.343 2.343 0 10-4.688 0H.586a.586.586 0 100 1.17h2.93c0 .647-.525 1.174-1.171 1.174H.586A.586.586 0 000 5.272v8.555a.586.586 0 101.172 0V5.86h1.172a2.347 2.347 0 002.344-2.343V2.344a1.172 1.172 0 112.343 0v1.172a2.343 2.343 0 104.688 0V2.344a1.172 1.172 0 112.344 0v1.172a2.343 2.343 0 104.687 0V2.344a1.172 1.172 0 112.344 0v25.312a1.172 1.172 0 11-2.344 0V12.305a.586.586 0 10-1.172 0v12.15a2.328 2.328 0 00-1.172-.314c-.426 0-.827.115-1.172.315V7.617a.586.586 0 10-1.171 0v20.04a1.172 1.172 0 11-2.344 0V12.304a.586.586 0 10-1.172 0v12.15a2.328 2.328 0 00-1.172-.314 2.33 2.33 0 00-1.172.315V7.617a.586.586 0 10-1.172 0v20.04a1.172 1.172 0 11-2.343 0V12.304a.586.586 0 10-1.172 0v12.151a2.328 2.328 0 00-1.172-.315H1.172v-5.625a.586.586 0 10-1.172 0v6.21c0 .324.262.587.586.587h1.758c.646 0 1.172.525 1.172 1.171v1.172a2.343 2.343 0 104.688 0v-1.172a1.172 1.172 0 012.344 0v1.172a2.343 2.343 0 104.688 0v-1.172a1.172 1.172 0 112.344 0v1.172a2.343 2.343 0 104.688 0V3.516h4.317a1.76 1.76 0 001.657 1.171A1.76 1.76 0 0030 2.93a1.76 1.76 0 00-1.758-1.758zM9.375 4.688a1.173 1.173 0 01-1.172-1.173h2.344c0 .646-.526 1.172-1.172 1.172zm7.031 0a1.172 1.172 0 01-1.172-1.173h2.344c0 .646-.526 1.172-1.172 1.172zm11.836-1.172a.587.587 0 11.001-1.173.587.587 0 010 1.173z" fill="#D8D8D8"/></svg>